Coordinates
version=1
nRows=5
nColumns=42
inDegrees=yes

Units are S.I. units (second, meters, Newtons, ...)
If the header above contains a line with 'inDegrees', this indicates whether rotational values are in degrees (yes) or radians (no).

endheader
time	pelvis_tilt	pelvis_list	pelvis_rotation	pelvis_tx	pelvis_ty	pelvis_tz	hip_flexion_r	hip_adduction_r	hip_rotation_r	knee_angle_r	knee_adduction_r	knee_angle_r_beta	ankle_angle_r	subtalar_angle_r	mtp_angle_r	hip_flexion_l	hip_adduction_l	hip_rotation_l	knee_angle_l	knee_adduction_l	knee_angle_l_beta	ankle_angle_l	subtalar_angle_l	mtp_angle_l	lumbar_extension	lumbar_bending	lumbar_rotation	arm_flex_r	arm_add_r	arm_rot_r	elbow_flex_r	pro_sup_r	wrist_flex_r	wrist_dev_r	arm_flex_l	arm_add_l	arm_rot_l	elbow_flex_l	pro_sup_l	wrist_flex_l	wrist_dev_l
      0.88000000	     13.88688566	     -1.80023212	      6.10983530	     -1.48439503	      0.89681091	      0.15130826	     -5.22590427	      4.91631156	    -32.44869452	     18.99482795	     -3.32770223	      0.33152229	     22.99541235	     35.62794406	     -7.63653183	     -5.07050154	     -4.08658535	    -15.73012277	     53.62823464	    -15.59559184	      0.93598927	     21.43365722	     18.77473108	     -7.63653183	    -39.42087868	      7.60459132	     -3.91912108	      4.71599937	    -14.77175189	      9.12316698	     47.33543167	     90.00000001	      0.00000000	      0.00000000	     11.21666864	    -13.49838580	      0.98435661	     48.87596440	     90.00000001	      0.00000000	      0.00000000
      0.89000000	     13.88573333	     -1.67960810	      6.09137215	     -1.47226055	      0.89743810	      0.15191603	     -6.45817092	      5.02717380	    -31.88434563	     18.37310896	     -2.99773339	      0.32067125	     23.63255529	     35.39639472	     -7.63439685	     -3.18930743	     -3.81858424	    -15.67389797	     53.47942329	    -15.47453009	      0.93339202	     22.28192484	     17.83044664	     -7.63439685	    -39.55538239	      7.37768091	     -3.70796905	      5.12225523	    -15.11353625	      9.27782646	     47.82236253	     90.00000001	      0.00000000	      0.00000000	     10.62288907	    -13.40139573	      0.86298907	     48.55395077	     90.00000001	      0.00000000	      0.00000000
      0.90000000	     13.88336407	     -1.60100890	      5.96217695	     -1.46003624	      0.89781400	      0.15269861	     -7.63352487	      5.16438062	    -31.33050198	     17.84307774	     -2.74011391	      0.31142046	     24.12923378	     35.02904337	     -7.63250690	     -1.41013149	     -3.64629006	    -15.70822226	     53.01535795	    -15.16079946	      0.92529255	     22.85988539	     17.03523926	     -7.63250690	    -39.68400073	      7.11687293	     -3.37942212	      5.50811866	    -15.47065346	      9.40791133	     48.25108375	     90.00000001	      0.00000000	      0.00000000	      9.98616901	    -13.29891837	      0.74742550	     48.31444142	     90.00000001	      0.00000000	      0.00000000
      0.91000000	     14.08158809	     -1.57544735	      5.82556406	     -1.44773992	      0.89822413	      0.15332475	     -9.17216177	      5.47395959	    -30.24718620	     16.96715431	     -2.43587474	      0.29613271	     24.90826130	     34.87688929	     -7.63003151	      0.06878998	     -3.44723585	    -15.76355758	     52.28683051	    -14.95185493	      0.91257735	     23.67930979	     15.86976007	     -7.63003151	    -40.01105430	      6.95214961	     -2.98714822	      5.93736426	    -15.94687072	      9.73075469	     48.82014708	     90.00000001	      0.00000000	      0.00000000	      9.36662562	    -13.13024722	      0.48851241	     48.06543089	     90.00000001	      0.00000000	      0.00000000
      0.92000000	     14.17864395	     -1.56695501	      5.56605017	     -1.43532189	      0.89827245	      0.15419566	    -10.53217798	      5.72459989	    -29.36460356	     16.24626588	     -2.19967212	      0.28355083	     25.37038334	     34.42255579	     -7.62775466	      1.53810639	     -3.33216416	    -15.93719547	     51.23637157	    -14.57159387	      0.89424338	     24.04542272	     15.06406712	     -7.62775466	    -40.20922388	      6.69589532	     -2.50203863	      6.33329632	    -16.36239750	      9.95362615	     49.26769321	     90.00000001	      0.00000000	      0.00000000	      8.67484293	    -12.96266943	      0.27505970	     47.91161448	     90.00000001	      0.00000000	      0.00000000
